# xmcd CD database file
#
# Track frame offsets:
#	150
#	17702
#	32947
#	50140
#	67095
#	89065
#	103275
#	120285
#	135125
#	151657
#
# Disc length: 2161 seconds
#
# Revision: 0
# Processed by: cddbd v1.5.1PL0 Copyright (c) Steve Scherf et al.
# Submitted via: CDex 1.51
#
DISCID=83086f0a
DTITLE=SWEET MAMA - Swing Side
DYEAR=1996
DGENRE=Jazz
TTITLE0=Which way steinway
TTITLE1=What's the matter with love
TTITLE2=Big road blues
TTITLE3=Tiger rag
TTITLE4=Walking and crying
TTITLE5=Safronia
TTITLE6=I know my baby loves me
TTITLE7=Won't be long
TTITLE8=Give your mama one smile
TTITLE9=Suicide blues
EXTD=YEAR: 1996
EXTT0=
EXTT1=
EXTT2=
EXTT3=
EXTT4=
EXTT5=
EXTT6=
EXTT7=
EXTT8=
EXTT9=
PLAYORDER=
